<svg id="visual" viewBox="0 0 900 600" width="900" height="600" xmlns="http://www.w3.org/2000/svg" xmlns:xlink="http://www.w3.org/1999/xlink" version="1.1"><g transform="translate(409.4336052550686 277.05802522653397)"><path d="M69 -96.1C93.9 -76.9 121.6 -62.7 158.1 -32.1C194.6 -1.4 240 45.6 232.4 77.6C224.9 109.5 164.5 126.4 116.9 133.7C69.4 141.1 34.7 139.1 -10.9 154C-56.4 169 -112.9 201 -136.5 185.8C-160.1 170.7 -150.9 108.4 -147.3 61.5C-143.6 14.7 -145.5 -16.6 -135.6 -43.1C-125.7 -69.7 -104 -91.5 -79.4 -110.8C-54.9 -130.2 -27.4 -147.1 -2.7 -143.4C22 -139.7 44.1 -115.3 69 -96.1" fill="#c1e2ec"></path></g></svg>