<svg id="visual" viewBox="0 0 900 600" width="900" height="600" xmlns="http://www.w3.org/2000/svg" xmlns:xlink="http://www.w3.org/1999/xlink" version="1.1"><g stroke-width="1" stroke-linejoin="bevel"><path d="M435 339L421 409L511 365Z" fill="#28708d" stroke="#28708d"></path><path d="M511 365L509 301L435 339Z" fill="#3090b0" stroke="#3090b0"></path><path d="M577 503L589 400L511 365Z" fill="#1f526b" stroke="#1f526b"></path><path d="M511 365L597 280L509 301Z" fill="#33a0c1" stroke="#33a0c1"></path><path d="M421 409L478 517L511 365Z" fill="#33a0c1" stroke="#33a0c1"></path><path d="M307 379L387 495L421 409Z" fill="#00101c" stroke="#00101c"></path><path d="M421 409L387 495L478 517Z" fill="#0f293a" stroke="#0f293a"></path><path d="M434 160L325 314L435 339Z" fill="#2c809e" stroke="#2c809e"></path><path d="M435 339L307 379L421 409Z" fill="#33a0c1" stroke="#33a0c1"></path><path d="M325 314L307 379L435 339Z" fill="#091d2b" stroke="#091d2b"></path><path d="M478 517L577 503L511 365Z" fill="#28708d" stroke="#28708d"></path><path d="M589 400L597 280L511 365Z" fill="#1a445a" stroke="#1a445a"></path><path d="M509 301L434 160L435 339Z" fill="#1f526b" stroke="#1f526b"></path><path d="M566 189L522 185L509 301Z" fill="#1f526b" stroke="#1f526b"></path><path d="M700 374L664 327L589 400Z" fill="#24617c" stroke="#24617c"></path><path d="M589 400L664 327L597 280Z" fill="#00101c" stroke="#00101c"></path><path d="M597 280L566 189L509 301Z" fill="#0f293a" stroke="#0f293a"></path><path d="M206 389L272 472L307 379Z" fill="#0f293a" stroke="#0f293a"></path><path d="M307 379L272 472L387 495Z" fill="#2c809e" stroke="#2c809e"></path><path d="M415 600L509 600L478 517Z" fill="#28708d" stroke="#28708d"></path><path d="M722 188L566 189L597 280Z" fill="#1f526b" stroke="#1f526b"></path><path d="M385 119L434 160L472 97Z" fill="#33a0c1" stroke="#33a0c1"></path><path d="M522 185L434 160L509 301Z" fill="#1a445a" stroke="#1a445a"></path><path d="M415 600L478 517L387 495Z" fill="#15364a" stroke="#15364a"></path><path d="M478 517L509 600L577 503Z" fill="#1a445a" stroke="#1a445a"></path><path d="M314 600L415 600L387 495Z" fill="#2c809e" stroke="#2c809e"></path><path d="M434 160L284 229L325 314Z" fill="#15364a" stroke="#15364a"></path><path d="M197 326L206 389L307 379Z" fill="#00101c" stroke="#00101c"></path><path d="M735 484L700 374L589 400Z" fill="#3090b0" stroke="#3090b0"></path><path d="M722 188L565 113L566 189Z" fill="#15364a" stroke="#15364a"></path><path d="M735 484L589 400L577 503Z" fill="#00101c" stroke="#00101c"></path><path d="M509 600L571 600L577 503Z" fill="#091d2b" stroke="#091d2b"></path><path d="M197 326L307 379L325 314Z" fill="#00101c" stroke="#00101c"></path><path d="M272 472L314 600L387 495Z" fill="#24617c" stroke="#24617c"></path><path d="M224 600L314 600L272 472Z" fill="#3090b0" stroke="#3090b0"></path><path d="M284 229L197 326L325 314Z" fill="#24617c" stroke="#24617c"></path><path d="M434 160L385 119L284 229Z" fill="#3090b0" stroke="#3090b0"></path><path d="M472 97L434 160L522 185Z" fill="#24617c" stroke="#24617c"></path><path d="M565 113L472 97L522 185Z" fill="#091d2b" stroke="#091d2b"></path><path d="M566 189L565 113L522 185Z" fill="#3090b0" stroke="#3090b0"></path><path d="M722 188L597 280L664 327Z" fill="#24617c" stroke="#24617c"></path><path d="M661 600L735 484L577 503Z" fill="#1f526b" stroke="#1f526b"></path><path d="M76 375L180 464L206 389Z" fill="#2c809e" stroke="#2c809e"></path><path d="M206 389L180 464L272 472Z" fill="#1f526b" stroke="#1f526b"></path><path d="M571 600L661 600L577 503Z" fill="#15364a" stroke="#15364a"></path><path d="M826 291L664 327L700 374Z" fill="#1a445a" stroke="#1a445a"></path><path d="M803 225L722 188L664 327Z" fill="#24617c" stroke="#24617c"></path><path d="M180 464L224 600L272 472Z" fill="#3090b0" stroke="#3090b0"></path><path d="M284 229L203 176L197 326Z" fill="#0f293a" stroke="#0f293a"></path><path d="M197 326L76 375L206 389Z" fill="#28708d" stroke="#28708d"></path><path d="M274 73L203 176L284 229Z" fill="#15364a" stroke="#15364a"></path><path d="M774 600L780 480L735 484Z" fill="#1a445a" stroke="#1a445a"></path><path d="M735 484L780 480L700 374Z" fill="#1f526b" stroke="#1f526b"></path><path d="M780 480L819 363L700 374Z" fill="#0f293a" stroke="#0f293a"></path><path d="M369 0L274 73L385 119Z" fill="#28708d" stroke="#28708d"></path><path d="M385 119L274 73L284 229Z" fill="#2c809e" stroke="#2c809e"></path><path d="M819 363L826 291L700 374Z" fill="#091d2b" stroke="#091d2b"></path><path d="M826 291L803 225L664 327Z" fill="#2c809e" stroke="#2c809e"></path><path d="M722 188L736 117L565 113Z" fill="#24617c" stroke="#24617c"></path><path d="M82 179L95 298L203 176Z" fill="#3090b0" stroke="#3090b0"></path><path d="M203 176L95 298L197 326Z" fill="#28708d" stroke="#28708d"></path><path d="M180 464L109 528L224 600Z" fill="#3090b0" stroke="#3090b0"></path><path d="M803 225L736 117L722 188Z" fill="#091d2b" stroke="#091d2b"></path><path d="M577 0L478 0L472 97Z" fill="#33a0c1" stroke="#33a0c1"></path><path d="M472 97L369 0L385 119Z" fill="#1f526b" stroke="#1f526b"></path><path d="M661 600L774 600L735 484Z" fill="#1f526b" stroke="#1f526b"></path><path d="M780 480L900 400L819 363Z" fill="#15364a" stroke="#15364a"></path><path d="M577 0L472 97L565 113Z" fill="#33a0c1" stroke="#33a0c1"></path><path d="M76 375L109 528L180 464Z" fill="#091d2b" stroke="#091d2b"></path><path d="M95 298L76 375L197 326Z" fill="#1a445a" stroke="#1a445a"></path><path d="M478 0L369 0L472 97Z" fill="#24617c" stroke="#24617c"></path><path d="M121 102L163 126L169 0Z" fill="#00101c" stroke="#00101c"></path><path d="M274 73L163 126L203 176Z" fill="#33a0c1" stroke="#33a0c1"></path><path d="M694 0L577 0L565 113Z" fill="#33a0c1" stroke="#33a0c1"></path><path d="M369 0L291 0L274 73Z" fill="#24617c" stroke="#24617c"></path><path d="M0 600L106 600L109 528Z" fill="#24617c" stroke="#24617c"></path><path d="M109 528L106 600L224 600Z" fill="#3090b0" stroke="#3090b0"></path><path d="M0 317L0 372L76 375Z" fill="#091d2b" stroke="#091d2b"></path><path d="M163 126L82 179L203 176Z" fill="#28708d" stroke="#28708d"></path><path d="M121 102L82 179L163 126Z" fill="#2c809e" stroke="#2c809e"></path><path d="M819 363L900 324L826 291Z" fill="#091d2b" stroke="#091d2b"></path><path d="M826 291L900 162L803 225Z" fill="#24617c" stroke="#24617c"></path><path d="M900 529L900 400L780 480Z" fill="#1a445a" stroke="#1a445a"></path><path d="M900 400L900 324L819 363Z" fill="#15364a" stroke="#15364a"></path><path d="M791 73L694 0L736 117Z" fill="#33a0c1" stroke="#33a0c1"></path><path d="M169 0L163 126L274 73Z" fill="#28708d" stroke="#28708d"></path><path d="M791 73L736 117L803 225Z" fill="#091d2b" stroke="#091d2b"></path><path d="M736 117L694 0L565 113Z" fill="#1a445a" stroke="#1a445a"></path><path d="M900 162L791 73L803 225Z" fill="#24617c" stroke="#24617c"></path><path d="M774 600L900 529L780 480Z" fill="#33a0c1" stroke="#33a0c1"></path><path d="M0 317L76 375L95 298Z" fill="#091d2b" stroke="#091d2b"></path><path d="M76 375L0 464L109 528Z" fill="#2c809e" stroke="#2c809e"></path><path d="M0 223L95 298L82 179Z" fill="#0f293a" stroke="#0f293a"></path><path d="M0 223L0 317L95 298Z" fill="#1a445a" stroke="#1a445a"></path><path d="M0 372L0 464L76 375Z" fill="#24617c" stroke="#24617c"></path><path d="M291 0L169 0L274 73Z" fill="#33a0c1" stroke="#33a0c1"></path><path d="M0 125L0 223L82 179Z" fill="#1f526b" stroke="#1f526b"></path><path d="M774 600L900 600L900 529Z" fill="#24617c" stroke="#24617c"></path><path d="M900 324L900 162L826 291Z" fill="#15364a" stroke="#15364a"></path><path d="M0 125L82 179L121 102Z" fill="#3090b0" stroke="#3090b0"></path><path d="M900 162L900 116L791 73Z" fill="#3090b0" stroke="#3090b0"></path><path d="M791 73L809 0L694 0Z" fill="#3090b0" stroke="#3090b0"></path><path d="M0 464L0 600L109 528Z" fill="#15364a" stroke="#15364a"></path><path d="M900 0L809 0L791 73Z" fill="#2c809e" stroke="#2c809e"></path><path d="M91 0L0 125L121 102Z" fill="#2c809e" stroke="#2c809e"></path><path d="M169 0L91 0L121 102Z" fill="#24617c" stroke="#24617c"></path><path d="M900 116L900 0L791 73Z" fill="#2c809e" stroke="#2c809e"></path><path d="M91 0L0 0L0 125Z" fill="#3090b0" stroke="#3090b0"></path></g></svg>